<mxfile host="app.diagrams.net" modified="2024-02-11T12:37:01.099Z" agent="Mozilla/5.0 (Windows NT 10.0; Win64; x64; rv:122.0) Gecko/20100101 Firefox/122.0" etag="ZA0SI-c5sGfvuYKAf7ew" version="23.1.1" type="github">
  <diagram name="Page-1" id="TcFIy0w62VH1tyJodE0P">
    <mxGraphModel dx="2074" dy="1142" grid="1" gridSize="10" guides="1" tooltips="1" connect="1" arrows="1" fold="1" page="1" pageScale="1" pageWidth="1200" pageHeight="1920" math="0" shadow="0">
      <root>
        <mxCell id="0" />
        <mxCell id="1" parent="0" />
        <mxCell id="AR1j1zXhLlSsMnv-sgNP-3" style="edgeStyle=orthogonalEdgeStyle;rounded=0;orthogonalLoop=1;jettySize=auto;html=1;entryX=0;entryY=0.5;entryDx=0;entryDy=0;" parent="1" source="AR1j1zXhLlSsMnv-sgNP-1" target="AR1j1zXhLlSsMnv-sgNP-2" edge="1">
          <mxGeometry relative="1" as="geometry" />
        </mxCell>
        <mxCell id="AR1j1zXhLlSsMnv-sgNP-1" value="Actor" style="shape=umlActor;verticalLabelPosition=bottom;verticalAlign=top;html=1;outlineConnect=0;" parent="1" vertex="1">
          <mxGeometry x="60" y="410" width="30" height="60" as="geometry" />
        </mxCell>
        <mxCell id="AR1j1zXhLlSsMnv-sgNP-4" style="edgeStyle=orthogonalEdgeStyle;rounded=0;orthogonalLoop=1;jettySize=auto;html=1;" parent="1" source="AR1j1zXhLlSsMnv-sgNP-2" edge="1">
          <mxGeometry relative="1" as="geometry">
            <mxPoint x="330" y="440" as="targetPoint" />
          </mxGeometry>
        </mxCell>
        <mxCell id="AR1j1zXhLlSsMnv-sgNP-2" value="WebUI" style="rounded=0;whiteSpace=wrap;html=1;rotation=0;" parent="1" vertex="1">
          <mxGeometry x="150" y="410" width="120" height="60" as="geometry" />
        </mxCell>
        <mxCell id="AR1j1zXhLlSsMnv-sgNP-6" style="edgeStyle=orthogonalEdgeStyle;rounded=0;orthogonalLoop=1;jettySize=auto;html=1;entryX=0;entryY=0.5;entryDx=0;entryDy=0;" parent="1" source="AR1j1zXhLlSsMnv-sgNP-5" target="AR1j1zXhLlSsMnv-sgNP-7" edge="1">
          <mxGeometry relative="1" as="geometry">
            <mxPoint x="520" y="440" as="targetPoint" />
          </mxGeometry>
        </mxCell>
        <mxCell id="AR1j1zXhLlSsMnv-sgNP-5" value="&lt;div&gt;API&lt;/div&gt;&lt;div&gt;GATEWAY&lt;br&gt;&lt;/div&gt;" style="rounded=0;whiteSpace=wrap;html=1;rotation=0;" parent="1" vertex="1">
          <mxGeometry x="330" y="410" width="120" height="60" as="geometry" />
        </mxCell>
        <mxCell id="AR1j1zXhLlSsMnv-sgNP-11" style="edgeStyle=orthogonalEdgeStyle;rounded=0;orthogonalLoop=1;jettySize=auto;html=1;entryX=0;entryY=0.5;entryDx=0;entryDy=0;" parent="1" source="AR1j1zXhLlSsMnv-sgNP-7" target="AR1j1zXhLlSsMnv-sgNP-9" edge="1">
          <mxGeometry relative="1" as="geometry" />
        </mxCell>
        <mxCell id="AR1j1zXhLlSsMnv-sgNP-23" style="edgeStyle=orthogonalEdgeStyle;rounded=0;orthogonalLoop=1;jettySize=auto;html=1;entryX=0;entryY=0.5;entryDx=0;entryDy=0;" parent="1" source="AR1j1zXhLlSsMnv-sgNP-7" edge="1">
          <mxGeometry relative="1" as="geometry">
            <mxPoint x="720" y="750" as="targetPoint" />
            <Array as="points">
              <mxPoint x="720" y="440" />
              <mxPoint x="720" y="610" />
              <mxPoint x="721" y="610" />
            </Array>
          </mxGeometry>
        </mxCell>
        <mxCell id="v4_1ggE6Rs6rgcaZL0Sa-7" style="edgeStyle=orthogonalEdgeStyle;rounded=0;orthogonalLoop=1;jettySize=auto;html=1;" edge="1" parent="1" source="AR1j1zXhLlSsMnv-sgNP-7" target="AR1j1zXhLlSsMnv-sgNP-12">
          <mxGeometry relative="1" as="geometry" />
        </mxCell>
        <mxCell id="AR1j1zXhLlSsMnv-sgNP-7" value="Library Service" style="rounded=0;whiteSpace=wrap;html=1;rotation=0;" parent="1" vertex="1">
          <mxGeometry x="590" y="410" width="120" height="60" as="geometry" />
        </mxCell>
        <mxCell id="AR1j1zXhLlSsMnv-sgNP-8" value="&lt;div&gt;POST&lt;/div&gt;&lt;div&gt;addBook{isbn}&lt;br&gt;&lt;/div&gt;" style="text;html=1;strokeColor=none;fillColor=none;align=center;verticalAlign=middle;whiteSpace=wrap;rounded=0;" parent="1" vertex="1">
          <mxGeometry x="470" y="400" width="100" height="30" as="geometry" />
        </mxCell>
        <mxCell id="AR1j1zXhLlSsMnv-sgNP-9" value="Eureka Server" style="rounded=0;whiteSpace=wrap;html=1;" parent="1" vertex="1">
          <mxGeometry x="700" y="230" width="120" height="60" as="geometry" />
        </mxCell>
        <mxCell id="AR1j1zXhLlSsMnv-sgNP-13" style="edgeStyle=orthogonalEdgeStyle;rounded=0;orthogonalLoop=1;jettySize=auto;html=1;entryX=1;entryY=0.5;entryDx=0;entryDy=0;" parent="1" source="AR1j1zXhLlSsMnv-sgNP-12" target="AR1j1zXhLlSsMnv-sgNP-9" edge="1">
          <mxGeometry relative="1" as="geometry" />
        </mxCell>
        <mxCell id="AR1j1zXhLlSsMnv-sgNP-19" style="edgeStyle=orthogonalEdgeStyle;rounded=0;orthogonalLoop=1;jettySize=auto;html=1;entryX=1;entryY=0.5;entryDx=0;entryDy=0;" parent="1" source="AR1j1zXhLlSsMnv-sgNP-12" target="AR1j1zXhLlSsMnv-sgNP-18" edge="1">
          <mxGeometry relative="1" as="geometry" />
        </mxCell>
        <mxCell id="AR1j1zXhLlSsMnv-sgNP-22" style="edgeStyle=orthogonalEdgeStyle;rounded=0;orthogonalLoop=1;jettySize=auto;html=1;entryX=1;entryY=0.5;entryDx=0;entryDy=0;" parent="1" source="AR1j1zXhLlSsMnv-sgNP-12" edge="1">
          <mxGeometry relative="1" as="geometry">
            <mxPoint x="910" y="750" as="targetPoint" />
            <Array as="points">
              <mxPoint x="1260" y="620" />
              <mxPoint x="911" y="620" />
            </Array>
          </mxGeometry>
        </mxCell>
        <mxCell id="AR1j1zXhLlSsMnv-sgNP-12" value="Book Service" style="rounded=0;whiteSpace=wrap;html=1;rotation=0;" parent="1" vertex="1">
          <mxGeometry x="1210" y="410" width="120" height="60" as="geometry" />
        </mxCell>
        <mxCell id="AR1j1zXhLlSsMnv-sgNP-15" value="grpc get book" style="text;html=1;strokeColor=none;fillColor=none;align=center;verticalAlign=middle;whiteSpace=wrap;rounded=0;" parent="1" vertex="1">
          <mxGeometry x="735" y="400" width="130" height="30" as="geometry" />
        </mxCell>
        <mxCell id="AR1j1zXhLlSsMnv-sgNP-17" style="edgeStyle=orthogonalEdgeStyle;rounded=0;orthogonalLoop=1;jettySize=auto;html=1;entryX=0.5;entryY=0;entryDx=0;entryDy=0;" parent="1" source="AR1j1zXhLlSsMnv-sgNP-16" target="AR1j1zXhLlSsMnv-sgNP-9" edge="1">
          <mxGeometry relative="1" as="geometry" />
        </mxCell>
        <mxCell id="AR1j1zXhLlSsMnv-sgNP-16" value="Character Service" style="rounded=0;whiteSpace=wrap;html=1;" parent="1" vertex="1">
          <mxGeometry x="960" y="140" width="120" height="60" as="geometry" />
        </mxCell>
        <mxCell id="AR1j1zXhLlSsMnv-sgNP-18" value="isIsbnExist" style="rhombus;whiteSpace=wrap;html=1;" parent="1" vertex="1">
          <mxGeometry x="740" y="520" width="120" height="100" as="geometry" />
        </mxCell>
        <mxCell id="AR1j1zXhLlSsMnv-sgNP-20" style="edgeStyle=orthogonalEdgeStyle;rounded=0;orthogonalLoop=1;jettySize=auto;html=1;entryX=0.461;entryY=0.994;entryDx=0;entryDy=0;entryPerimeter=0;" parent="1" source="AR1j1zXhLlSsMnv-sgNP-18" target="AR1j1zXhLlSsMnv-sgNP-7" edge="1">
          <mxGeometry relative="1" as="geometry" />
        </mxCell>
        <mxCell id="AR1j1zXhLlSsMnv-sgNP-24" value="Vault" style="shape=cylinder3;whiteSpace=wrap;html=1;boundedLbl=1;backgroundOutline=1;size=15;" parent="1" vertex="1">
          <mxGeometry x="785" y="900" width="60" height="80" as="geometry" />
        </mxCell>
        <mxCell id="Uvmm8bWfbn26TandfGrT-1" value="8300" style="text;html=1;align=center;verticalAlign=middle;resizable=0;points=[];autosize=1;strokeColor=none;fillColor=none;" parent="1" vertex="1">
          <mxGeometry x="790" y="990" width="50" height="30" as="geometry" />
        </mxCell>
        <mxCell id="Uvmm8bWfbn26TandfGrT-2" value="Vault" style="rounded=0;whiteSpace=wrap;html=1;" parent="1" vertex="1">
          <mxGeometry x="700" y="750" width="230" height="70" as="geometry" />
        </mxCell>
        <mxCell id="Uvmm8bWfbn26TandfGrT-3" style="edgeStyle=orthogonalEdgeStyle;rounded=0;orthogonalLoop=1;jettySize=auto;html=1;entryX=0.5;entryY=0;entryDx=0;entryDy=0;entryPerimeter=0;" parent="1" source="Uvmm8bWfbn26TandfGrT-2" target="AR1j1zXhLlSsMnv-sgNP-24" edge="1">
          <mxGeometry relative="1" as="geometry" />
        </mxCell>
        <mxCell id="v4_1ggE6Rs6rgcaZL0Sa-3" style="edgeStyle=orthogonalEdgeStyle;rounded=0;orthogonalLoop=1;jettySize=auto;html=1;entryX=0.75;entryY=0;entryDx=0;entryDy=0;" edge="1" parent="1" source="v4_1ggE6Rs6rgcaZL0Sa-2" target="AR1j1zXhLlSsMnv-sgNP-7">
          <mxGeometry relative="1" as="geometry" />
        </mxCell>
        <mxCell id="v4_1ggE6Rs6rgcaZL0Sa-4" style="edgeStyle=orthogonalEdgeStyle;rounded=0;orthogonalLoop=1;jettySize=auto;html=1;entryX=0.25;entryY=0;entryDx=0;entryDy=0;" edge="1" parent="1" source="v4_1ggE6Rs6rgcaZL0Sa-2" target="AR1j1zXhLlSsMnv-sgNP-12">
          <mxGeometry relative="1" as="geometry" />
        </mxCell>
        <mxCell id="v4_1ggE6Rs6rgcaZL0Sa-2" value="&lt;div&gt;comicStore-common&lt;/div&gt;&lt;div&gt;grpc&lt;br&gt;&lt;/div&gt;" style="rounded=0;whiteSpace=wrap;html=1;" vertex="1" parent="1">
          <mxGeometry x="850" y="320" width="140" height="60" as="geometry" />
        </mxCell>
        <mxCell id="v4_1ggE6Rs6rgcaZL0Sa-5" value="grpc-client" style="text;html=1;align=center;verticalAlign=middle;resizable=0;points=[];autosize=1;strokeColor=none;fillColor=none;" vertex="1" parent="1">
          <mxGeometry x="680" y="358" width="80" height="30" as="geometry" />
        </mxCell>
        <mxCell id="v4_1ggE6Rs6rgcaZL0Sa-6" value="grpc-server : 9094" style="text;whiteSpace=wrap;html=1;" vertex="1" parent="1">
          <mxGeometry x="1240" y="358" width="90" height="40" as="geometry" />
        </mxCell>
        <mxCell id="v4_1ggE6Rs6rgcaZL0Sa-8" value="grpc server : 9092" style="text;html=1;strokeColor=none;fillColor=none;align=center;verticalAlign=middle;whiteSpace=wrap;rounded=0;" vertex="1" parent="1">
          <mxGeometry x="530" y="480" width="90" height="50" as="geometry" />
        </mxCell>
        <mxCell id="v4_1ggE6Rs6rgcaZL0Sa-9" value="&lt;div&gt;&lt;br&gt;&lt;/div&gt;&lt;div&gt;&lt;br&gt;&lt;/div&gt;" style="text;html=1;strokeColor=none;fillColor=none;align=center;verticalAlign=middle;whiteSpace=wrap;rounded=0;" vertex="1" parent="1">
          <mxGeometry x="1030" y="290" width="90" height="50" as="geometry" />
        </mxCell>
      </root>
    </mxGraphModel>
  </diagram>
</mxfile>
